<svg version="1.1" xmlns="http://www.w3.org/2000/svg" viewBox="0 0 1436.7134662179328 919.2169487517025" width="1436.7134662179328" height="919.2169487517025">
  <!-- svg-source:excalidraw -->
  
  <defs>
    <style class="style-fonts">
      @font-face {
        font-family: "Virgil";
        src: url("https://excalidraw.com/Virgil.woff2");
      }
      @font-face {
        font-family: "Cascadia";
        src: url("https://excalidraw.com/Cascadia.woff2");
      }
      @font-face {
        font-family: "Assistant";
        src: url("https://excalidraw.com/Assistant-Regular.woff2");
      }
    </style>
    
  </defs>
  <rect x="0" y="0" width="1436.7134662179328" height="919.2169487517025" fill="#ffffff"></rect><g transform="translate(99.19588530010387 51.64583299923419) rotate(0 24.597991943359375 17.5)"><text x="0" y="24.528" font-family="Virgil, Segoe UI Emoji" font-size="28px" fill="#1e1e1e" text-anchor="start" style="white-space: pre;" direction="ltr" dominant-baseline="alphabetic">d,l,-</text></g><g stroke-linecap="round" transform="translate(89.88771346617236 44.68209206423211) rotate(0 34 22.84081076384365)"><path d="M11.42 0 C20.89 -0.33, 30.47 0.74, 56.58 0 M11.42 0 C22.22 0.73, 31.72 0.3, 56.58 0 M56.58 0 C64.64 -0.21, 67.9 4.88, 68 11.42 M56.58 0 C64.8 -0.04, 68.17 1.89, 68 11.42 M68 11.42 C67.85 16.38, 69.25 21.81, 68 34.26 M68 11.42 C68.12 19.93, 68.05 26.86, 68 34.26 M68 34.26 C69.85 43.05, 65.29 47.51, 56.58 45.68 M68 34.26 C69.92 43.57, 61.9 44.23, 56.58 45.68 M56.58 45.68 C36.86 44.03, 21.57 46.56, 11.42 45.68 M56.58 45.68 C43.52 46, 31.98 44.3, 11.42 45.68 M11.42 45.68 C2.18 45.54, -1.68 41.92, 0 34.26 M11.42 45.68 C3.25 47.13, -0.45 43.44, 0 34.26 M0 34.26 C-0.6 27.68, -1.1 24.22, 0 11.42 M0 34.26 C0.02 29.87, -0.73 25.32, 0 11.42 M0 11.42 C-0.62 4.59, 5.39 0.12, 11.42 0 M0 11.42 C-1.19 3.84, 4.87 -2.29, 11.42 0" stroke="#1e1e1e" stroke-width="2" fill="none"></path></g><g transform="translate(648.5113582133195 83.44907291861068) rotate(0 51.01598358154297 17.5)"><text x="0" y="24.528" font-family="Virgil, Segoe UI Emoji" font-size="28px" fill="#1e1e1e" text-anchor="start" style="white-space: pre;" direction="ltr" dominant-baseline="alphabetic">r w x/s</text></g><g transform="translate(956.2191827404124 85.28530212717311) rotate(0 51.01598358154297 17.5)"><text x="0" y="24.528" font-family="Virgil, Segoe UI Emoji" font-size="28px" fill="#1e1e1e" text-anchor="start" style="white-space: pre;" direction="ltr" dominant-baseline="alphabetic">r w x/s</text></g><g transform="translate(1261.9620433458024 85.6001961507971) rotate(0 51.32398223876953 17.5)"><text x="0" y="24.528" font-family="Virgil, Segoe UI Emoji" font-size="28px" fill="#1e1e1e" text-anchor="start" style="white-space: pre;" direction="ltr" dominant-baseline="alphabetic">r w x/t</text></g><g stroke-linecap="round"><g transform="translate(653.7378224736096 86.63270563207845) rotate(0 31.910211828673 -13.95457731815614)"><path d="M-1.02 0.48 C2.29 -0.94, 15.15 -4.12, 20.41 -8.99 C25.66 -13.86, 26.82 -28.37, 30.5 -28.75 C34.19 -29.13, 36.93 -15.96, 42.52 -11.3 C48.12 -6.64, 60.5 -2.42, 64.07 -0.78 M0.65 -0.31 C3.78 -2, 14.26 -5.92, 19.62 -10.51 C24.98 -15.1, 29.47 -27.82, 32.82 -27.87 C36.17 -27.92, 34.73 -15.37, 39.72 -10.8 C44.7 -6.23, 58.44 -2.37, 62.72 -0.44" stroke="#1e1e1e" stroke-width="2" fill="none"></path></g></g><mask></mask><g transform="translate(645.4647892944565 13.262884644995182) rotate(0 38.905975341796875 17.500000000000014)"><text x="0" y="24.528" font-family="Virgil, Segoe UI Emoji" font-size="28px" fill="#1e1e1e" text-anchor="start" style="white-space: pre;" direction="ltr" dominant-baseline="alphabetic">Owner</text></g><g stroke-linecap="round"><g transform="translate(959.8188456111848 89.59201526833334) rotate(0 31.910211828673027 -13.95457731815614)"><path d="M0.22 0.14 C3.61 -1.42, 14.66 -4.45, 19.9 -9.08 C25.14 -13.72, 28 -27.46, 31.65 -27.68 C35.29 -27.9, 36.35 -14.7, 41.77 -10.39 C47.2 -6.09, 60.4 -3.34, 64.18 -1.84 M-1.13 -0.84 C2.14 -2.73, 13.51 -6.41, 18.85 -10.65 C24.19 -14.88, 27.01 -26.45, 30.91 -26.24 C34.81 -26.04, 36.91 -13.45, 42.24 -9.42 C47.57 -5.39, 59.52 -3.77, 62.89 -2.05" stroke="#1e1e1e" stroke-width="2" fill="none"></path></g></g><mask></mask><g transform="translate(951.5458124320317 16.222194281250097) rotate(0 39.67597961425781 17.5)"><text x="0" y="24.528" font-family="Virgil, Segoe UI Emoji" font-size="28px" fill="#1e1e1e" text-anchor="start" style="white-space: pre;" direction="ltr" dominant-baseline="alphabetic">Group</text></g><g stroke-linecap="round"><g transform="translate(1266.564494768218 89.39109011542615) rotate(0 31.910211828673027 -13.95457731815614)"><path d="M-0.81 0.88 C2.29 -0.63, 13.72 -5.39, 19.22 -10.09 C24.72 -14.78, 28.44 -27.09, 32.18 -27.27 C35.91 -27.45, 36.48 -15.66, 41.63 -11.18 C46.78 -6.7, 59.36 -2.28, 63.05 -0.39 M0.96 0.3 C4.39 -0.92, 16.35 -3.59, 21.47 -8.52 C26.6 -13.45, 28.3 -28.93, 31.72 -29.28 C35.15 -29.63, 36.5 -15.53, 42.02 -10.62 C47.54 -5.72, 60.98 -1.54, 64.84 0.16" stroke="#1e1e1e" stroke-width="2" fill="none"></path></g></g><mask></mask><g transform="translate(1258.291461589065 15.430338186974893) rotate(0 38.66797637939453 17.5)"><text x="0" y="24.528" font-family="Virgil, Segoe UI Emoji" font-size="28px" fill="#1e1e1e" text-anchor="start" style="white-space: pre;" direction="ltr" dominant-baseline="alphabetic">Other</text></g><g stroke-linecap="round" transform="translate(556.3928651408219 187.7565706117174) rotate(0 129.62315575778155 92.59740879550577)"><path d="M0 0 C54.68 2.08, 113.12 0.35, 259.25 0 M0 0 C74.32 1.24, 147.61 1.74, 259.25 0 M259.25 0 C258.34 39.3, 259.14 77.49, 259.25 185.19 M259.25 0 C259.13 70.93, 259.46 142.13, 259.25 185.19 M259.25 185.19 C159.99 188, 60.03 187.13, 0 185.19 M259.25 185.19 C186.54 183.44, 114.91 183.29, 0 185.19 M0 185.19 C-1.61 119.3, 0.08 53.11, 0 0 M0 185.19 C0.42 122.67, 1.89 60.17, 0 0" stroke="#1e1e1e" stroke-width="2" fill="none"></path></g><g stroke-linecap="round"><g transform="translate(556.3928651408219 234.01613549181786) rotate(0 129.1412852902805 0.48187046750103946)"><path d="M0 0 C60.9 1.16, 121.26 2.79, 258.28 0.96 M0 0 C84.6 0.92, 169.51 0.37, 258.28 0.96" stroke="#1e1e1e" stroke-width="2" fill="none"></path></g></g><mask></mask><g stroke-linecap="round"><g transform="translate(598.7974662809139 187.7565706117174) rotate(0 -0.9637409350021073 92.47606092366141)"><path d="M0 0 C-0.12 72.43, 0.45 145.53, -1.93 184.95 M0 0 C1.4 71.66, 0.84 140.55, -1.93 184.95" stroke="#1e1e1e" stroke-width="2" fill="none"></path></g></g><mask></mask><g transform="translate(571.6621355797613 197.3939799617384) rotate(0 6.019996643066406 17.5)"><text x="0" y="24.528" font-family="Virgil, Segoe UI Emoji" font-size="28px" fill="#1e1e1e" text-anchor="start" style="white-space: pre;" direction="ltr" dominant-baseline="alphabetic">r</text></g><g stroke-linecap="round"><g transform="translate(554.3147987497235 281.3121310973478) rotate(0 129.1412852902805 0.48187046750103946)"><path d="M0 0 C94.98 -1.13, 190.55 1.09, 258.28 0.96 M0 0 C97.87 0.64, 195.88 0.09, 258.28 0.96" stroke="#1e1e1e" stroke-width="2" fill="none"></path></g></g><mask></mask><g transform="translate(568.6203282536608 241.79875276226198) rotate(0 8.525993347167969 17.5)"><text x="0" y="24.528" font-family="Virgil, Segoe UI Emoji" font-size="28px" fill="#1e1e1e" text-anchor="start" style="white-space: pre;" direction="ltr" dominant-baseline="alphabetic">w</text></g><g transform="translate(568.6203282536608 287.0193854987564) rotate(0 7.8679962158203125 17.5)"><text x="0" y="24.528" font-family="Virgil, Segoe UI Emoji" font-size="28px" fill="#1e1e1e" text-anchor="start" style="white-space: pre;" direction="ltr" dominant-baseline="alphabetic">x</text></g><g transform="translate(620.812923264868 197.39397996173824) rotate(0 34.45398712158203 17.5)"><text x="0" y="24.528" font-family="Virgil, Segoe UI Emoji" font-size="28px" fill="#1e1e1e" text-anchor="start" style="white-space: pre;" direction="ltr" dominant-baseline="alphabetic">Read</text></g><g transform="translate(621.7766641998701 243.6535448418386) rotate(0 35.097984313964844 17.50000000000003)"><text x="0" y="24.528" font-family="Virgil, Segoe UI Emoji" font-size="28px" fill="#1e1e1e" text-anchor="start" style="white-space: pre;" direction="ltr" dominant-baseline="alphabetic">Write</text></g><g transform="translate(619.8491823298659 289.91310972193924) rotate(0 55.509979248046875 17.5)"><text x="0" y="24.528" font-family="Virgil, Segoe UI Emoji" font-size="28px" fill="#1e1e1e" text-anchor="start" style="white-space: pre;" direction="ltr" dominant-baseline="alphabetic">Execute</text></g><g stroke-linecap="round"><g transform="translate(772.2708345812907 189.68405248172144) rotate(0 -0.6638922752676422 91.63366786050375)"><path d="M0 0 C0.33 42.88, 0.83 89.42, -1.33 183.27 M0 0 C-2.93 71.42, -3.21 143.81, -1.33 183.27" stroke="#1e1e1e" stroke-width="2" fill="none"></path></g></g><mask></mask><g transform="translate(783.6851412802218 199.32146183174228) rotate(0 8.959999084472656 17.5)"><text x="0" y="24.528" font-family="Virgil, Segoe UI Emoji" font-size="28px" fill="#1e1e1e" text-anchor="start" style="white-space: pre;" direction="ltr" dominant-baseline="alphabetic">4</text></g><g transform="translate(783.6851412802218 245.58102671184287) rotate(0 9.967994689941406 17.49999999999997)"><text x="0" y="24.528" font-family="Virgil, Segoe UI Emoji" font-size="28px" fill="#1e1e1e" text-anchor="start" style="white-space: pre;" direction="ltr" dominant-baseline="alphabetic">2</text></g><g transform="translate(790.4313278252365 289.91310972193924) rotate(0 3.7939987182617188 17.5)"><text x="0" y="24.528" font-family="Virgil, Segoe UI Emoji" font-size="28px" fill="#1e1e1e" text-anchor="start" style="white-space: pre;" direction="ltr" dominant-baseline="alphabetic">1</text></g><g stroke-linecap="round" transform="translate(578.2650315356505 10) rotate(0 109.59396949149524 53.71189593890114)"><path d="M26.86 0 C69.5 -0.03, 108.56 1.6, 192.33 0 M26.86 0 C91.07 1.27, 154.41 1.11, 192.33 0 M192.33 0 C210.84 -1.38, 221.05 9.96, 219.19 26.86 M192.33 0 C209.9 -0.17, 220.88 7.13, 219.19 26.86 M219.19 26.86 C219.81 37.22, 220.54 50.51, 219.19 80.57 M219.19 26.86 C219.35 43.14, 219.33 58.68, 219.19 80.57 M219.19 80.57 C219.82 98.18, 211.76 107.01, 192.33 107.42 M219.19 80.57 C217.89 98.43, 211.69 107.34, 192.33 107.42 M192.33 107.42 C135.46 108.85, 83.63 108.07, 26.86 107.42 M192.33 107.42 C150.97 106.85, 108.29 107.35, 26.86 107.42 M26.86 107.42 C8.97 106.44, -0.47 99.97, 0 80.57 M26.86 107.42 C10.71 109.01, -1.92 96.31, 0 80.57 M0 80.57 C0.12 67.93, 1.46 52.66, 0 26.86 M0 80.57 C-0.85 64, 0.71 47.58, 0 26.86 M0 26.86 C1.33 9.67, 7.37 1.28, 26.86 0 M0 26.86 C-1.13 10.32, 8.47 -1.32, 26.86 0" stroke="#1e1e1e" stroke-width="2" fill="none"></path></g><g stroke-linecap="round" transform="translate(882.6324418560907 11.085088806846443) rotate(0 109.59396949149522 53.71189593890114)"><path d="M26.86 0 C71.96 0.46, 116.8 -0.02, 192.33 0 M26.86 0 C78.7 -0.61, 129.91 -2.35, 192.33 0 M192.33 0 C210.17 0.93, 220.2 10.12, 219.19 26.86 M192.33 0 C210.84 -1, 217.3 7.15, 219.19 26.86 M219.19 26.86 C221.05 45.32, 221.59 65.8, 219.19 80.57 M219.19 26.86 C219.39 40.69, 219.01 56.23, 219.19 80.57 M219.19 80.57 C220.74 99.94, 211.86 108.18, 192.33 107.42 M219.19 80.57 C217.8 99.12, 211.07 107.59, 192.33 107.42 M192.33 107.42 C128.17 108.06, 65.06 107.72, 26.86 107.42 M192.33 107.42 C130.5 106.71, 68.15 108.4, 26.86 107.42 M26.86 107.42 C9.01 107.17, -0.31 98.35, 0 80.57 M26.86 107.42 C10.41 106.98, -1.43 98.82, 0 80.57 M0 80.57 C-0.9 69.22, 0.46 55.9, 0 26.86 M0 80.57 C0 66.01, -0.1 52.17, 0 26.86 M0 26.86 C-0.13 7.04, 7.39 0.2, 26.86 0 M0 26.86 C0.17 6.8, 11.08 -0.33, 26.86 0" stroke="#1e1e1e" stroke-width="2" fill="none"></path></g><g stroke-linecap="round" transform="translate(1186.4573077731075 14.340355227385885) rotate(0 109.59396949149522 53.71189593890114)"><path d="M26.86 0 C66.58 -0.79, 108.58 -0.01, 192.33 0 M26.86 0 C83.81 -0.57, 138.7 -1.29, 192.33 0 M192.33 0 C210.44 0.15, 217.31 10.8, 219.19 26.86 M192.33 0 C209.9 0.56, 219.12 6.83, 219.19 26.86 M219.19 26.86 C220.63 47.3, 221.48 64.81, 219.19 80.57 M219.19 26.86 C218.5 45.05, 218.46 64.83, 219.19 80.57 M219.19 80.57 C221.07 97.45, 211.58 108.21, 192.33 107.42 M219.19 80.57 C220.96 100.6, 209.94 106.38, 192.33 107.42 M192.33 107.42 C144.52 106.82, 97.98 108.2, 26.86 107.42 M192.33 107.42 C133 108.11, 72.76 109.17, 26.86 107.42 M26.86 107.42 C8.8 108.69, 0.23 96.86, 0 80.57 M26.86 107.42 C8.51 106.21, -0.04 97.61, 0 80.57 M0 80.57 C1 66.76, 1.59 52.25, 0 26.86 M0 80.57 C0.78 64.02, 0.89 49.18, 0 26.86 M0 26.86 C-1.87 10.18, 8.76 -1.76, 26.86 0 M0 26.86 C0.82 10, 8.93 -0.58, 26.86 0" stroke="#1e1e1e" stroke-width="2" fill="none"></path></g><g stroke-linecap="round" transform="translate(267.20569200754363 187.711051981114) rotate(0 129.62315575778155 70.35308825515284)"><path d="M0 0 C72.11 -2.37, 143.98 -1.36, 259.25 0 M0 0 C94.47 -0.7, 187.67 -1.31, 259.25 0 M259.25 0 C259.77 28.46, 260.61 61.2, 259.25 140.71 M259.25 0 C259.82 40.09, 261.26 79.03, 259.25 140.71 M259.25 140.71 C154.86 142.35, 53.21 140.2, 0 140.71 M259.25 140.71 C205.21 138.42, 151.74 138.22, 0 140.71 M0 140.71 C-1.16 100.83, -0.8 64.25, 0 0 M0 140.71 C-0.31 89.64, -0.13 37.12, 0 0" stroke="#1e1e1e" stroke-width="2" fill="none"></path></g><g stroke-linecap="round"><g transform="translate(267.20569200754363 233.97061686121447) rotate(0 129.1412852902805 0.48187046750103946)"><path d="M0 0 C101.37 1.54, 201.45 1.74, 258.28 0.96 M0 0 C86.57 -0.31, 171.98 0.35, 258.28 0.96" stroke="#1e1e1e" stroke-width="2" fill="none"></path></g></g><mask></mask><g stroke-linecap="round"><g transform="translate(309.6102931476358 187.711051981114) rotate(0 -0.9637409350021073 71.31682919015486)"><path d="M0 0 C1.72 38.35, 0.66 77.82, -1.93 142.63 M0 0 C-1.06 42.72, -1.32 86.56, -1.93 142.63" stroke="#1e1e1e" stroke-width="2" fill="none"></path></g></g><mask></mask><g transform="translate(282.47496244648306 197.348461331135) rotate(0 7.601997375488281 17.5)"><text x="0" y="24.528" font-family="Virgil, Segoe UI Emoji" font-size="28px" fill="#1e1e1e" text-anchor="start" style="white-space: pre;" direction="ltr" dominant-baseline="alphabetic">s</text></g><g stroke-linecap="round"><g transform="translate(265.1276256164454 281.2666124667444) rotate(0 129.1412852902805 0.48187046750103946)"><path d="M0 0 C82.16 -1.16, 163.07 -2.7, 258.28 0.96 M0 0 C68.79 -0.02, 139.29 -0.65, 258.28 0.96" stroke="#1e1e1e" stroke-width="2" fill="none"></path></g></g><mask></mask><g transform="translate(279.43315512038265 241.7532341316586) rotate(0 7.601997375488281 17.5)"><text x="0" y="24.528" font-family="Virgil, Segoe UI Emoji" font-size="28px" fill="#1e1e1e" text-anchor="start" style="white-space: pre;" direction="ltr" dominant-baseline="alphabetic">s</text></g><g transform="translate(279.43315512038265 286.973866868153) rotate(0 7.909996032714844 17.5)"><text x="0" y="24.528" font-family="Virgil, Segoe UI Emoji" font-size="28px" fill="#1e1e1e" text-anchor="start" style="white-space: pre;" direction="ltr" dominant-baseline="alphabetic">t</text></g><g transform="translate(331.62575013158977 197.34846133113479) rotate(0 52.6259765625 17.5)"><text x="0" y="24.528" font-family="Virgil, Segoe UI Emoji" font-size="28px" fill="#1e1e1e" text-anchor="start" style="white-space: pre;" direction="ltr" dominant-baseline="alphabetic">SetUID</text></g><g transform="translate(332.58949106659185 243.60802621123526) rotate(0 53.67597961425781 17.5)"><text x="0" y="24.528" font-family="Virgil, Segoe UI Emoji" font-size="28px" fill="#1e1e1e" text-anchor="start" style="white-space: pre;" direction="ltr" dominant-baseline="alphabetic">SetGID</text></g><g transform="translate(330.6620091965877 289.86759109133595) rotate(0 64.98796081542969 17.5)"><text x="0" y="24.528" font-family="Virgil, Segoe UI Emoji" font-size="28px" fill="#1e1e1e" text-anchor="start" style="white-space: pre;" direction="ltr" dominant-baseline="alphabetic">Sticky bit</text></g><g stroke-linecap="round"><g transform="translate(483.0836614480125 189.63853385111804) rotate(0 0.9637409350020789 69.38934732015076)"><path d="M0 0 C0.79 50.15, 2.56 104.17, 1.93 138.78 M0 0 C2.3 44.53, 3.22 90.76, 1.93 138.78" stroke="#1e1e1e" stroke-width="2" fill="none"></path></g></g><mask></mask><g transform="translate(494.4979681469436 199.27594320113894) rotate(0 8.959999084472656 17.5)"><text x="0" y="24.528" font-family="Virgil, Segoe UI Emoji" font-size="28px" fill="#1e1e1e" text-anchor="start" style="white-space: pre;" direction="ltr" dominant-baseline="alphabetic">4</text></g><g transform="translate(494.4979681469436 245.5355080812394) rotate(0 9.967994689941406 17.5)"><text x="0" y="24.528" font-family="Virgil, Segoe UI Emoji" font-size="28px" fill="#1e1e1e" text-anchor="start" style="white-space: pre;" direction="ltr" dominant-baseline="alphabetic">2</text></g><g transform="translate(501.2441546919584 289.86759109133595) rotate(0 3.7939987182617188 17.5)"><text x="0" y="24.528" font-family="Virgil, Segoe UI Emoji" font-size="28px" fill="#1e1e1e" text-anchor="start" style="white-space: pre;" direction="ltr" dominant-baseline="alphabetic">1</text></g><g transform="translate(24.816662799439314 580.2141679978292) rotate(0 143.02395629882812 17.5)"><text x="0" y="24.528" font-family="Virgil, Segoe UI Emoji" font-size="28px" fill="#1e1e1e" text-anchor="start" style="white-space: pre;" direction="ltr" dominant-baseline="alphabetic">4664 --&gt; rwS rw- r--</text></g><g stroke-linecap="round"><g transform="translate(556.0049937197489 330.3209463229575) rotate(0 129.1412852902805 0.48187046750103946)"><path d="M0 0 C74.29 0.01, 144.93 0.98, 258.28 0.96 M0 0 C53.83 1.35, 108.27 1.53, 258.28 0.96" stroke="#1e1e1e" stroke-width="2" fill="none"></path></g></g><mask></mask><g transform="translate(571.2119542911481 337.1542752642159) rotate(0 5.753997802734375 17.5)"><text x="0" y="24.528" font-family="Virgil, Segoe UI Emoji" font-size="28px" fill="#1e1e1e" text-anchor="start" style="white-space: pre;" direction="ltr" dominant-baseline="alphabetic">-</text></g><g transform="translate(614.6155065650076 336.0691864573695) rotate(0 70.02798461914062 17.5)"><text x="0" y="24.528" font-family="Virgil, Segoe UI Emoji" font-size="28px" fill="#1e1e1e" text-anchor="start" style="white-space: pre;" direction="ltr" dominant-baseline="alphabetic">No access</text></g><g transform="translate(784.9744492399062 338.2393640710625) rotate(0 9.631996154785156 17.5)"><text x="0" y="24.528" font-family="Virgil, Segoe UI Emoji" font-size="28px" fill="#1e1e1e" text-anchor="start" style="white-space: pre;" direction="ltr" dominant-baseline="alphabetic">0</text></g><g stroke-linecap="round" transform="translate(864.7273775921996 190.1584381922189) rotate(0 129.62315575778155 92.59740879550583)"><path d="M0 0 C55.15 -1.31, 113.66 -0.36, 259.25 0 M0 0 C92.51 -1.18, 184.95 -1.39, 259.25 0 M259.25 0 C260.77 67.87, 257.48 133.67, 259.25 185.19 M259.25 0 C258.27 53.5, 259.1 107.3, 259.25 185.19 M259.25 185.19 C171.37 187.08, 82.75 186.08, 0 185.19 M259.25 185.19 C177.85 187.08, 98.5 186.8, 0 185.19 M0 185.19 C-0.88 135.84, -1.17 83.94, 0 0 M0 185.19 C2.26 133.4, 2.05 82.89, 0 0" stroke="#1e1e1e" stroke-width="2" fill="none"></path></g><g stroke-linecap="round"><g transform="translate(864.7273775921994 236.41800307231938) rotate(0 129.1412852902805 0.48187046750103946)"><path d="M0 0 C96.23 1.27, 191.1 1.96, 258.28 0.96 M0 0 C85.46 0.9, 172.46 1.82, 258.28 0.96" stroke="#1e1e1e" stroke-width="2" fill="none"></path></g></g><mask></mask><g stroke-linecap="round"><g transform="translate(907.1319787322915 190.1584381922189) rotate(0 -0.9637409350021358 92.47606092366141)"><path d="M0 0 C1.88 58.49, 0.79 112.91, -1.93 184.95 M0 0 C-1.11 43.93, -2.67 89, -1.93 184.95" stroke="#1e1e1e" stroke-width="2" fill="none"></path></g></g><mask></mask><g transform="translate(879.9966480311389 199.79584754223993) rotate(0 6.019996643066406 17.5)"><text x="0" y="24.528" font-family="Virgil, Segoe UI Emoji" font-size="28px" fill="#1e1e1e" text-anchor="start" style="white-space: pre;" direction="ltr" dominant-baseline="alphabetic">r</text></g><g stroke-linecap="round"><g transform="translate(862.6493112011011 283.7139986778493) rotate(0 129.1412852902805 0.48187046750103946)"><path d="M0 0 C98.91 -0.09, 198.4 2.29, 258.28 0.96 M0 0 C74.95 -2.16, 149.07 -1.35, 258.28 0.96" stroke="#1e1e1e" stroke-width="2" fill="none"></path></g></g><mask></mask><g transform="translate(876.9548407050385 244.2006203427636) rotate(0 8.525993347167969 17.5)"><text x="0" y="24.528" font-family="Virgil, Segoe UI Emoji" font-size="28px" fill="#1e1e1e" text-anchor="start" style="white-space: pre;" direction="ltr" dominant-baseline="alphabetic">w</text></g><g transform="translate(876.9548407050385 289.4212530792579) rotate(0 7.8679962158203125 17.5)"><text x="0" y="24.528" font-family="Virgil, Segoe UI Emoji" font-size="28px" fill="#1e1e1e" text-anchor="start" style="white-space: pre;" direction="ltr" dominant-baseline="alphabetic">x</text></g><g transform="translate(929.1474357162457 199.7958475422397) rotate(0 34.45398712158203 17.5)"><text x="0" y="24.528" font-family="Virgil, Segoe UI Emoji" font-size="28px" fill="#1e1e1e" text-anchor="start" style="white-space: pre;" direction="ltr" dominant-baseline="alphabetic">Read</text></g><g transform="translate(930.1111766512478 246.05541242234017) rotate(0 35.097984313964844 17.5)"><text x="0" y="24.528" font-family="Virgil, Segoe UI Emoji" font-size="28px" fill="#1e1e1e" text-anchor="start" style="white-space: pre;" direction="ltr" dominant-baseline="alphabetic">Write</text></g><g transform="translate(928.1836947812436 292.31497730244064) rotate(0 55.509979248046875 17.5)"><text x="0" y="24.528" font-family="Virgil, Segoe UI Emoji" font-size="28px" fill="#1e1e1e" text-anchor="start" style="white-space: pre;" direction="ltr" dominant-baseline="alphabetic">Execute</text></g><g stroke-linecap="round"><g transform="translate(1080.6053470326683 192.08592006222307) rotate(0 -0.6638922752676422 91.63366786050375)"><path d="M0 0 C0.58 64.21, -1.18 130.25, -1.33 183.27 M0 0 C0.53 60, 0.8 119.55, -1.33 183.27" stroke="#1e1e1e" stroke-width="2" fill="none"></path></g></g><mask></mask><g transform="translate(1092.0196537315996 201.72332941224386) rotate(0 8.959999084472656 17.5)"><text x="0" y="24.528" font-family="Virgil, Segoe UI Emoji" font-size="28px" fill="#1e1e1e" text-anchor="start" style="white-space: pre;" direction="ltr" dominant-baseline="alphabetic">4</text></g><g transform="translate(1092.0196537315996 247.98289429234433) rotate(0 9.967994689941406 17.5)"><text x="0" y="24.528" font-family="Virgil, Segoe UI Emoji" font-size="28px" fill="#1e1e1e" text-anchor="start" style="white-space: pre;" direction="ltr" dominant-baseline="alphabetic">2</text></g><g transform="translate(1098.7658402766142 292.31497730244064) rotate(0 3.7939987182617188 17.5)"><text x="0" y="24.528" font-family="Virgil, Segoe UI Emoji" font-size="28px" fill="#1e1e1e" text-anchor="start" style="white-space: pre;" direction="ltr" dominant-baseline="alphabetic">1</text></g><g stroke-linecap="round"><g transform="translate(864.3395061711266 332.72281390345915) rotate(0 129.1412852902805 0.48187046750103946)"><path d="M0 0 C88.65 1.37, 176.56 0.69, 258.28 0.96 M0 0 C79.75 -0.28, 161.54 -0.26, 258.28 0.96" stroke="#1e1e1e" stroke-width="2" fill="none"></path></g></g><mask></mask><g transform="translate(879.5464667425257 339.55614284471744) rotate(0 5.753997802734375 17.5)"><text x="0" y="24.528" font-family="Virgil, Segoe UI Emoji" font-size="28px" fill="#1e1e1e" text-anchor="start" style="white-space: pre;" direction="ltr" dominant-baseline="alphabetic">-</text></g><g transform="translate(921.8649302095388 338.471054037871) rotate(0 70.02798461914062 17.5)"><text x="0" y="24.528" font-family="Virgil, Segoe UI Emoji" font-size="28px" fill="#1e1e1e" text-anchor="start" style="white-space: pre;" direction="ltr" dominant-baseline="alphabetic">No access</text></g><g transform="translate(1093.308961691284 340.6412316515639) rotate(0 9.631996154785156 17.5)"><text x="0" y="24.528" font-family="Virgil, Segoe UI Emoji" font-size="28px" fill="#1e1e1e" text-anchor="start" style="white-space: pre;" direction="ltr" dominant-baseline="alphabetic">0</text></g><g stroke-linecap="round" transform="translate(1167.4671547023695 191.24352699906558) rotate(0 129.6231557577816 92.59740879550583)"><path d="M0 0 C64.3 0.3, 126.11 -1.33, 259.25 0 M0 0 C56.87 -1.51, 115.6 -1.93, 259.25 0 M259.25 0 C257.74 64.44, 258.12 125.99, 259.25 185.19 M259.25 0 C258.63 45.52, 258.63 88.75, 259.25 185.19 M259.25 185.19 C180.99 186.16, 102.93 187.9, 0 185.19 M259.25 185.19 C174.39 187.51, 91.13 186.74, 0 185.19 M0 185.19 C1.9 144.86, 0.39 103.21, 0 0 M0 185.19 C1.01 115.12, 1.24 45.29, 0 0" stroke="#1e1e1e" stroke-width="2" fill="none"></path></g><g stroke-linecap="round"><g transform="translate(1167.4671547023695 237.50309187916605) rotate(0 129.14128529028056 0.48187046750103946)"><path d="M0 0 C73.75 -1.36, 147.13 -0.48, 258.28 0.96 M0 0 C95.38 0.1, 190.17 0.93, 258.28 0.96" stroke="#1e1e1e" stroke-width="2" fill="none"></path></g></g><mask></mask><g stroke-linecap="round"><g transform="translate(1209.8717558424617 191.24352699906558) rotate(0 -0.9637409350020789 92.47606092366141)"><path d="M0 0 C-2.65 54.6, -0.32 109.93, -1.93 184.95 M0 0 C0.93 52.94, 0.61 105.34, -1.93 184.95" stroke="#1e1e1e" stroke-width="2" fill="none"></path></g></g><mask></mask><g transform="translate(1182.7364251413092 200.8809363490866) rotate(0 6.019996643066406 17.5)"><text x="0" y="24.528" font-family="Virgil, Segoe UI Emoji" font-size="28px" fill="#1e1e1e" text-anchor="start" style="white-space: pre;" direction="ltr" dominant-baseline="alphabetic">r</text></g><g stroke-linecap="round"><g transform="translate(1165.3890883112713 284.799087484696) rotate(0 129.1412852902805 0.48187046750103946)"><path d="M0 0 C61.36 2.96, 122.08 2.94, 258.28 0.96 M0 0 C76.18 1.31, 151.2 1.53, 258.28 0.96" stroke="#1e1e1e" stroke-width="2" fill="none"></path></g></g><mask></mask><g transform="translate(1179.6946178152084 245.28570914961006) rotate(0 8.525993347167969 17.5)"><text x="0" y="24.528" font-family="Virgil, Segoe UI Emoji" font-size="28px" fill="#1e1e1e" text-anchor="start" style="white-space: pre;" direction="ltr" dominant-baseline="alphabetic">w</text></g><g transform="translate(1179.6946178152084 290.50634188610456) rotate(0 7.8679962158203125 17.5)"><text x="0" y="24.528" font-family="Virgil, Segoe UI Emoji" font-size="28px" fill="#1e1e1e" text-anchor="start" style="white-space: pre;" direction="ltr" dominant-baseline="alphabetic">x</text></g><g transform="translate(1231.8872128264156 200.88093634908637) rotate(0 34.45398712158203 17.5)"><text x="0" y="24.528" font-family="Virgil, Segoe UI Emoji" font-size="28px" fill="#1e1e1e" text-anchor="start" style="white-space: pre;" direction="ltr" dominant-baseline="alphabetic">Read</text></g><g transform="translate(1232.8509537614177 247.14050122918673) rotate(0 35.097984313964844 17.5)"><text x="0" y="24.528" font-family="Virgil, Segoe UI Emoji" font-size="28px" fill="#1e1e1e" text-anchor="start" style="white-space: pre;" direction="ltr" dominant-baseline="alphabetic">Write</text></g><g transform="translate(1230.9234718914136 293.4000661092873) rotate(0 55.509979248046875 17.5)"><text x="0" y="24.528" font-family="Virgil, Segoe UI Emoji" font-size="28px" fill="#1e1e1e" text-anchor="start" style="white-space: pre;" direction="ltr" dominant-baseline="alphabetic">Execute</text></g><g stroke-linecap="round"><g transform="translate(1383.3451241428384 193.1710088690695) rotate(0 -0.663892275267699 91.63366786050375)"><path d="M0 0 C-0.63 48.92, -0.33 98.28, -1.33 183.27 M0 0 C0.58 39.93, -0.98 80, -1.33 183.27" stroke="#1e1e1e" stroke-width="2" fill="none"></path></g></g><mask></mask><g transform="translate(1394.7594308417697 202.8084182190904) rotate(0 8.959999084472656 17.5)"><text x="0" y="24.528" font-family="Virgil, Segoe UI Emoji" font-size="28px" fill="#1e1e1e" text-anchor="start" style="white-space: pre;" direction="ltr" dominant-baseline="alphabetic">4</text></g><g transform="translate(1394.7594308417697 249.067983099191) rotate(0 9.967994689941406 17.5)"><text x="0" y="24.528" font-family="Virgil, Segoe UI Emoji" font-size="28px" fill="#1e1e1e" text-anchor="start" style="white-space: pre;" direction="ltr" dominant-baseline="alphabetic">2</text></g><g transform="translate(1401.5056173867843 293.4000661092873) rotate(0 3.7939987182617188 17.5)"><text x="0" y="24.528" font-family="Virgil, Segoe UI Emoji" font-size="28px" fill="#1e1e1e" text-anchor="start" style="white-space: pre;" direction="ltr" dominant-baseline="alphabetic">1</text></g><g stroke-linecap="round"><g transform="translate(1167.0792832812967 333.8079027103056) rotate(0 129.14128529028045 0.48187046750103946)"><path d="M0 0 C78.34 -2.13, 156.87 -0.1, 258.28 0.96 M0 0 C83.73 -1.44, 169.06 -1.89, 258.28 0.96" stroke="#1e1e1e" stroke-width="2" fill="none"></path></g></g><mask></mask><g transform="translate(1182.2862438526959 340.6412316515641) rotate(0 5.753997802734375 17.5)"><text x="0" y="24.528" font-family="Virgil, Segoe UI Emoji" font-size="28px" fill="#1e1e1e" text-anchor="start" style="white-space: pre;" direction="ltr" dominant-baseline="alphabetic">-</text></g><g transform="translate(1225.6897961265554 339.55614284471767) rotate(0 70.02798461914062 17.5)"><text x="0" y="24.528" font-family="Virgil, Segoe UI Emoji" font-size="28px" fill="#1e1e1e" text-anchor="start" style="white-space: pre;" direction="ltr" dominant-baseline="alphabetic">No access</text></g><g transform="translate(1396.048738801454 341.72632045841056) rotate(0 9.631996154785156 17.5)"><text x="0" y="24.528" font-family="Virgil, Segoe UI Emoji" font-size="28px" fill="#1e1e1e" text-anchor="start" style="white-space: pre;" direction="ltr" dominant-baseline="alphabetic">0</text></g><g transform="translate(26.109517811193996 636.5002068633904) rotate(0 131.3059539794922 17.5)"><text x="0" y="24.528" font-family="Virgil, Segoe UI Emoji" font-size="28px" fill="#1e1e1e" text-anchor="start" style="white-space: pre;" direction="ltr" dominant-baseline="alphabetic">664 --&gt; rw- rw- r--</text></g><g transform="translate(26.976632062065107 694.0099136262542) rotate(0 139.31393432617188 17.5)"><text x="0" y="24.528" font-family="Virgil, Segoe UI Emoji" font-size="28px" fill="#1e1e1e" text-anchor="start" style="white-space: pre;" direction="ltr" dominant-baseline="alphabetic">1777 --&gt; rwx rwx rxt</text></g><g transform="translate(24.816662799439314 517.7044612349653) rotate(0 139.0859375 22.5)"><text x="0" y="31.536" font-family="Virgil, Segoe UI Emoji" font-size="36px" fill="#1e1e1e" text-anchor="start" style="white-space: pre;" direction="ltr" dominant-baseline="alphabetic">Few examples : </text></g><g stroke-linecap="round" transform="translate(10 495.57724106380317) rotate(0 161.13568781670347 127.49793480446232)"><path d="M32 0 C108.47 -0.92, 183.76 0.35, 290.27 0 M32 0 C102.01 -0.87, 172.09 -2.31, 290.27 0 M290.27 0 C312.06 -0.84, 321.99 9.42, 322.27 32 M290.27 0 C312.98 1.17, 323.7 10.19, 322.27 32 M322.27 32 C320.99 86.6, 321.03 146.96, 322.27 223 M322.27 32 C320.68 97.32, 322.05 163.97, 322.27 223 M322.27 223 C321.92 243.58, 312.05 253.93, 290.27 255 M322.27 223 C321.39 244.19, 311.83 257.27, 290.27 255 M290.27 255 C206.58 255.19, 120.53 256.59, 32 255 M290.27 255 C236.32 256.3, 181.96 256.24, 32 255 M32 255 C12.07 255.49, 0.76 245.81, 0 223 M32 255 C8.67 254.97, -1.9 245.16, 0 223 M0 223 C-1.87 149.93, -1.63 72.49, 0 32 M0 223 C0.81 167.28, 0.04 111.35, 0 32 M0 32 C1.2 9.52, 8.87 -0.35, 32 0 M0 32 C0.76 8.46, 10.36 0.3, 32 0" stroke="#1e1e1e" stroke-width="2" fill="none"></path></g><g stroke-linecap="round" transform="translate(618.4122184380468 507.0043697913933) rotate(0 402.5229906796732 201.1062894801546)"><path d="M0 0 C231.01 -0.17, 461.15 0.07, 805.05 0 M0 0 C162.38 1.51, 324.54 1.21, 805.05 0 M805.05 0 C805.58 107.88, 804.05 213.23, 805.05 402.21 M805.05 0 C804.77 111.51, 804.87 223.03, 805.05 402.21 M805.05 402.21 C625.22 405.09, 444.47 404.84, 0 402.21 M805.05 402.21 C579.7 401.66, 353.23 401.71, 0 402.21 M0 402.21 C-0.09 296.36, -1.55 190.63, 0 0 M0 402.21 C-0.16 281.86, -0.22 162.38, 0 0" stroke="#1e1e1e" stroke-width="2" fill="none"></path></g><g stroke-linecap="round"><g transform="translate(660.8168195781387 508.08945859823996) rotate(0 -0.4211965315788291 200.44239720488702)"><path d="M0 0 C-3.5 129.51, -3.05 257.6, -0.84 400.88 M0 0 C-1.77 159.34, -1.49 319.16, -0.84 400.88" stroke="#1e1e1e" stroke-width="2" fill="none"></path></g></g><mask></mask><g transform="translate(633.6814888769862 526.2584664714979) rotate(0 6.019996643066406 17.5)"><text x="0" y="24.528" font-family="Virgil, Segoe UI Emoji" font-size="28px" fill="#1e1e1e" text-anchor="start" style="white-space: pre;" direction="ltr" dominant-baseline="alphabetic">r</text></g><g stroke-linecap="round"><g transform="translate(619.5894184674878 578.3046638564844) rotate(0 401.498575808749 1.0244148709243177)"><path d="M0 0 C292.1 0.29, 582.83 1.2, 803 2.05 M0 0 C234.06 -1.8, 467.22 -1.01, 803 2.05" stroke="#1e1e1e" stroke-width="2" fill="none"></path></g></g><mask></mask><g transform="translate(669.8112108799352 515.1312463003354) rotate(0 44.75996398925781 12.5)"><text x="0" y="17.52" font-family="Virgil, Segoe UI Emoji" font-size="20px" fill="#e03131" text-anchor="start" style="white-space: pre;" direction="ltr" dominant-baseline="alphabetic">Read file</text></g><g transform="translate(669.1411267571626 548.1825694745925) rotate(0 114.1299057006836 12.5)"><text x="0" y="17.52" font-family="Virgil, Segoe UI Emoji" font-size="20px" fill="#1971c2" text-anchor="start" style="white-space: pre;" direction="ltr" dominant-baseline="alphabetic">Read directory content</text></g><g transform="translate(421.46969894633264 510.3430403254216) rotate(0 53.31196594238281 35)"><text x="0" y="24.528" font-family="Virgil, Segoe UI Emoji" font-size="28px" fill="#e03131" text-anchor="start" style="white-space: pre;" direction="ltr" dominant-baseline="alphabetic">- fichier</text><text x="0" y="59.528" font-family="Virgil, Segoe UI Emoji" font-size="28px" fill="#e03131" text-anchor="start" style="white-space: pre;" direction="ltr" dominant-baseline="alphabetic"></text></g><g transform="translate(421.46969894633276 551.9378358951318) rotate(0 72.74396514892578 17.5)"><text x="0" y="24.528" font-family="Virgil, Segoe UI Emoji" font-size="28px" fill="#1971c2" text-anchor="start" style="white-space: pre;" direction="ltr" dominant-baseline="alphabetic">- directory</text></g><g stroke-linecap="round"><g transform="translate(618.9401445168452 651.280826739446) rotate(0 401.4985758087491 1.0244148709243177)"><path d="M0 0 C199.92 3.03, 400.97 3.88, 803 2.05 M0 0 C204.29 1.87, 409.65 2.61, 803 2.05" stroke="#1e1e1e" stroke-width="2" fill="none"></path></g></g><mask></mask><g transform="translate(629.8067498608585 599.7457665210662) rotate(0 10.444000244140625 17.5)"><text x="0" y="24.528" font-family="Virgil, Segoe UI Emoji" font-size="28px" fill="#1e1e1e" text-anchor="start" style="white-space: pre;" direction="ltr" dominant-baseline="alphabetic">W</text></g><g transform="translate(668.2953909415644 587.2562993621449) rotate(0 88.72991943359375 12.5)"><text x="0" y="17.52" font-family="Virgil, Segoe UI Emoji" font-size="20px" fill="#e03131" text-anchor="start" style="white-space: pre;" direction="ltr" dominant-baseline="alphabetic">Change/delete file</text></g><g transform="translate(669.9550357141787 617.7668322032235) rotate(0 122.0098876953125 12.5)"><text x="0" y="17.52" font-family="Virgil, Segoe UI Emoji" font-size="20px" fill="#1971c2" text-anchor="start" style="white-space: pre;" direction="ltr" dominant-baseline="alphabetic">Delete directory content</text></g><g stroke-linecap="round"><g transform="translate(616.7699669031522 717.6005838979863) rotate(0 401.498575808749 1.0244148709243177)"><path d="M0 0 C231.72 0.51, 464.3 1.07, 803 2.05 M0 0 C261.83 1.09, 524.45 1.68, 803 2.05" stroke="#1e1e1e" stroke-width="2" fill="none"></path></g></g><mask></mask><g transform="translate(631.2987264920292 664.7125158413991) rotate(0 8.371994018554688 17.5)"><text x="0" y="24.528" font-family="Virgil, Segoe UI Emoji" font-size="28px" fill="#1e1e1e" text-anchor="start" style="white-space: pre;" direction="ltr" dominant-baseline="alphabetic">X</text></g><g transform="translate(667.5601831925188 657.5423382277062) rotate(0 59.79994201660156 12.5)"><text x="0" y="17.52" font-family="Virgil, Segoe UI Emoji" font-size="20px" fill="#e03131" text-anchor="start" style="white-space: pre;" direction="ltr" dominant-baseline="alphabetic">Execute file</text></g><g transform="translate(669.2198279651333 688.0528710687848) rotate(0 118.7898941040039 12.5)"><text x="0" y="17.52" font-family="Virgil, Segoe UI Emoji" font-size="20px" fill="#1971c2" text-anchor="start" style="white-space: pre;" direction="ltr" dominant-baseline="alphabetic">Enter into the directory</text></g><g stroke-linecap="round"><g transform="translate(617.8550557099985 779.5778186369433) rotate(0 401.4985758087491 1.0244148709243177)"><path d="M0 0 C162.66 -2.78, 325.09 -2.5, 803 2.05 M0 0 C184.52 3.13, 368.69 3.2, 803 2.05" stroke="#1e1e1e" stroke-width="2" fill="none"></path></g></g><mask></mask><g transform="translate(668.6452719993651 721.264306546124) rotate(0 256.509765625 12.5)"><text x="0" y="17.52" font-family="Virgil, Segoe UI Emoji" font-size="20px" fill="#e03131" text-anchor="start" style="white-space: pre;" direction="ltr" dominant-baseline="alphabetic">Execute the file as owner with the owner permission</text></g><g transform="translate(670.3049167719796 750.030105807742) rotate(0 192.65983581542966 12.5)"><text x="0" y="17.52" font-family="Virgil, Segoe UI Emoji" font-size="20px" fill="#1971c2" text-anchor="start" style="white-space: pre;" direction="ltr" dominant-baseline="alphabetic">Does nothing (in most of UNIX system)</text></g><g transform="translate(630.891838667705 723.4458905015653) rotate(0 6.079994201660156 12.5)"><text x="0" y="17.52" font-family="Virgil, Segoe UI Emoji" font-size="20px" fill="#1e1e1e" text-anchor="start" style="white-space: pre;" direction="ltr" dominant-baseline="alphabetic">S</text></g><g transform="translate(625.4663946334725 753.828377093267) rotate(0 13.559982299804688 12.5)"><text x="0" y="17.52" font-family="Virgil, Segoe UI Emoji" font-size="20px" fill="#1e1e1e" text-anchor="start" style="white-space: pre;" direction="ltr" dominant-baseline="alphabetic">uid</text></g><g stroke-linecap="round"><g transform="translate(620.0252333236913 845.4261577856288) rotate(0 401.498575808749 1.0244148709242609)"><path d="M0 0 C227.74 3.15, 456.45 3.49, 803 2.05 M0 0 C264.19 -2.17, 528.42 -1.48, 803 2.05" stroke="#1e1e1e" stroke-width="2" fill="none"></path></g></g><mask></mask><g transform="translate(670.815449613058 785.1977345016559) rotate(0 207.72979736328125 12.5)"><text x="0" y="17.52" font-family="Virgil, Segoe UI Emoji" font-size="20px" fill="#e03131" text-anchor="start" style="white-space: pre;" direction="ltr" dominant-baseline="alphabetic">Execute the file with the group permission</text></g><g transform="translate(671.3900055788259 813.453000922195) rotate(0 254.34979248046875 12.5)"><text x="0" y="17.52" font-family="Virgil, Segoe UI Emoji" font-size="20px" fill="#1971c2" text-anchor="start" style="white-space: pre;" direction="ltr" dominant-baseline="alphabetic">All next files and subdirectory will inherit the group</text></g><g transform="translate(632.5230996637513 784.7319293671268) rotate(0 6.079994201660156 12.5)"><text x="0" y="17.52" font-family="Virgil, Segoe UI Emoji" font-size="20px" fill="#1e1e1e" text-anchor="start" style="white-space: pre;" direction="ltr" dominant-baseline="alphabetic">S</text></g><g transform="translate(626.0125668226723 812.9442383451354) rotate(0 12.889984130859375 12.5)"><text x="0" y="17.52" font-family="Virgil, Segoe UI Emoji" font-size="20px" fill="#1e1e1e" text-anchor="start" style="white-space: pre;" direction="ltr" dominant-baseline="alphabetic">gid</text></g><g transform="translate(634.1471050882444 864.507435391609) rotate(0 5.649993896484375 12.5)"><text x="0" y="17.52" font-family="Virgil, Segoe UI Emoji" font-size="20px" fill="#1e1e1e" text-anchor="start" style="white-space: pre;" direction="ltr" dominant-baseline="alphabetic">t</text></g><g transform="translate(665.1368452311905 878.0495667559247) rotate(0 268.7297668457031 12.5)"><text x="0" y="17.52" font-family="Virgil, Segoe UI Emoji" font-size="20px" fill="#1971c2" text-anchor="start" style="white-space: pre;" direction="ltr" dominant-baseline="alphabetic">Only owner can delete/rename its own file/subdirectory</text></g><g transform="translate(665.3594140662531 853.6565473231441) rotate(0 318.759765625 12.5)"><text x="0" y="17.52" font-family="Virgil, Segoe UI Emoji" font-size="20px" fill="#e03131" text-anchor="start" style="white-space: pre;" direction="ltr" dominant-baseline="alphabetic">Does nothing (old usage but removed in 2005 on Solaris for ex)</text></g><g stroke-linecap="round" transform="translate(17.252779841149675 187.711051981114) rotate(0 107.92137962085178 70.35308825515284)"><path d="M0 0 C72.65 1.85, 146.46 2.26, 215.84 0 M0 0 C83.42 2.66, 167.32 1.39, 215.84 0 M215.84 0 C215.55 33.14, 213.6 67.37, 215.84 140.71 M215.84 0 C216.65 35.73, 216.24 71.93, 215.84 140.71 M215.84 140.71 C163.74 138.64, 112.1 139.2, 0 140.71 M215.84 140.71 C138.86 142.8, 60.9 142.32, 0 140.71 M0 140.71 C-2.3 110.23, -2.45 80.56, 0 0 M0 140.71 C0.49 100.93, -0.98 62.7, 0 0" stroke="#1e1e1e" stroke-width="2" fill="none"></path></g><g stroke-linecap="round"><g transform="translate(16.167691034303175 233.97061686121447) rotate(0 108.52459796019724 -0.6032183393454602)"><path d="M0 0 C54.8 0.04, 108.44 -2.51, 217.05 -1.21 M0 0 C43.33 -2.47, 87.45 -2.64, 217.05 -1.21" stroke="#1e1e1e" stroke-width="2" fill="none"></path></g></g><mask></mask><g stroke-linecap="round"><g transform="translate(58.57229217439533 187.711051981114) rotate(0 -0.9637409350021073 71.31682919015486)"><path d="M0 0 C2.22 48.46, -2.18 97.91, -1.93 142.63 M0 0 C-2.44 55.76, -2.39 112.54, -1.93 142.63" stroke="#1e1e1e" stroke-width="2" fill="none"></path></g></g><mask></mask><g transform="translate(31.436961473242604 197.348461331135) rotate(0 7.965995788574219 17.5)"><text x="0" y="24.528" font-family="Virgil, Segoe UI Emoji" font-size="28px" fill="#1e1e1e" text-anchor="start" style="white-space: pre;" direction="ltr" dominant-baseline="alphabetic">d</text></g><g stroke-linecap="round"><g transform="translate(14.089624643204957 281.2666124667443) rotate(0 110.69477557389021 0.48187046750103946)"><path d="M0 0 C55.23 0.17, 106.32 0.69, 221.39 0.96 M0 0 C56.68 -0.76, 113.82 -0.18, 221.39 0.96" stroke="#1e1e1e" stroke-width="2" fill="none"></path></g></g><mask></mask><g transform="translate(32.39515414714219 242.7532341316586) rotate(0 3.6819992065429688 17.5)"><text x="0" y="24.528" font-family="Virgil, Segoe UI Emoji" font-size="28px" fill="#1e1e1e" text-anchor="start" style="white-space: pre;" direction="ltr" dominant-baseline="alphabetic">l</text></g><g transform="translate(30.395154147142193 288.97386686815287) rotate(0 5.753997802734375 17.5)"><text x="0" y="24.528" font-family="Virgil, Segoe UI Emoji" font-size="28px" fill="#1e1e1e" text-anchor="start" style="white-space: pre;" direction="ltr" dominant-baseline="alphabetic">-</text></g><g transform="translate(80.58774915834931 196.34846133113479) rotate(0 62.9439697265625 17.5)"><text x="0" y="24.528" font-family="Virgil, Segoe UI Emoji" font-size="28px" fill="#1e1e1e" text-anchor="start" style="white-space: pre;" direction="ltr" dominant-baseline="alphabetic">Directory</text></g><g transform="translate(81.55149009335139 243.60802621123526) rotate(0 24.80797576904297 17.5)"><text x="0" y="24.528" font-family="Virgil, Segoe UI Emoji" font-size="28px" fill="#1e1e1e" text-anchor="start" style="white-space: pre;" direction="ltr" dominant-baseline="alphabetic">Link</text></g><g transform="translate(79.62400822334723 289.86759109133607) rotate(0 22.441986083984375 17.5)"><text x="0" y="24.528" font-family="Virgil, Segoe UI Emoji" font-size="28px" fill="#1e1e1e" text-anchor="start" style="white-space: pre;" direction="ltr" dominant-baseline="alphabetic">File</text></g><g transform="translate(18.56139637889987 793.9766629465872) rotate(0 215.4298095703125 37.5)"><text x="0" y="17.52" font-family="Virgil, Segoe UI Emoji" font-size="20px" fill="#1e1e1e" text-anchor="start" style="white-space: pre;" direction="ltr" dominant-baseline="alphabetic">Note : ⚠ Capital letter for s and t</text><text x="0" y="42.519999999999996" font-family="Virgil, Segoe UI Emoji" font-size="20px" fill="#1e1e1e" text-anchor="start" style="white-space: pre;" direction="ltr" dominant-baseline="alphabetic">means that there is no execute permissions</text><text x="0" y="67.52" font-family="Virgil, Segoe UI Emoji" font-size="20px" fill="#1e1e1e" text-anchor="start" style="white-space: pre;" direction="ltr" dominant-baseline="alphabetic">and therefore a wrong setup</text></g><g stroke-linecap="round" transform="translate(284.7485092836752 12.170177613692857) rotate(0 109.59396949149523 53.71189593890115)"><path d="M26.86 0 C87.65 0, 148.44 0, 192.33 0 M192.33 0 C210.24 0, 219.19 8.95, 219.19 26.86 M219.19 26.86 C219.19 47.54, 219.19 68.22, 219.19 80.57 M219.19 80.57 C219.19 98.47, 210.24 107.42, 192.33 107.42 M192.33 107.42 C145.18 107.42, 98.03 107.42, 26.86 107.42 M26.86 107.42 C8.95 107.42, 0 98.47, 0 80.57 M0 80.57 C0 66.36, 0 52.15, 0 26.86 M0 26.86 C0 8.95, 8.95 0, 26.86 0" stroke="#1e1e1e" stroke-width="2.5" fill="none" stroke-dasharray="1.5 8"></path></g></svg>